<?xml version="1.0" encoding="UTF-8" standalone="no"?>
<!DOCTYPE svg PUBLIC "-//W3C//DTD SVG 1.1//EN" "http://www.w3.org/Graphics/SVG/1.1/DTD/svg11.dtd">
<svg width="100%" height="100%" viewBox="0 0 144 144" version="1.1" xmlns="http://www.w3.org/2000/svg" xmlns:xlink="http://www.w3.org/1999/xlink" xml:space="preserve" xmlns:serif="http://www.serif.com/" style="fill-rule:evenodd;clip-rule:evenodd;stroke-linejoin:round;stroke-miterlimit:2;">
    <g transform="matrix(0.265986,0,0,0.265986,-194.289,-59.9631)">
        <path d="M747.658,546.955C746.68,540.885 746.179,534.722 746.179,528.48C746.179,434.481 859.912,358.166 1000,358.166C1140.09,358.166 1253.82,434.481 1253.82,528.48C1253.82,534.722 1253.32,540.885 1252.34,546.955L747.658,546.955Z" style="fill:url(#_Linear1);"/>
    </g>
    <path d="M7.962,83.348C26.567,82.52 39.523,78.377 54.782,69.864C68.807,62.039 76.036,54.983 87.427,53.158C87.884,53.085 88.112,53.36 87.884,53.698C84.547,58.66 83.637,64.479 86.874,70.368C91.113,78.082 101.653,81.629 113.465,81.629C120.513,81.629 128.682,80.797 135.584,78.147C132.334,110.706 104.822,136.169 71.41,136.171C39.798,136.173 13.466,113.385 7.962,83.348Z" style="fill:rgb(38,118,182);"/>
    <path d="M7.962,83.348C26.567,82.52 39.523,78.377 54.782,69.864C68.807,62.039 76.036,54.983 87.427,53.158C87.884,53.085 88.112,53.36 87.884,53.698C84.547,58.66 83.637,64.479 86.874,70.368C91.113,78.082 101.653,81.629 113.465,81.629C120.513,81.629 128.682,80.797 135.584,78.147C132.334,110.706 104.822,136.169 71.41,136.171C39.798,136.173 13.466,113.385 7.962,83.348Z" style="fill:rgb(38,118,182);"/>
    <path d="M71.697,-0C111.268,-0 143.395,32.126 143.395,71.697C143.395,111.268 111.268,143.395 71.697,143.395C32.126,143.395 0,111.268 0,71.697C0,32.126 32.126,-0 71.697,-0ZM135.584,78.147C132.334,110.706 104.822,136.169 71.41,136.171C39.798,136.173 13.466,113.385 7.962,83.348C26.567,82.519 39.524,78.377 54.782,69.864C68.807,62.039 76.036,54.983 87.427,53.158C87.884,53.085 88.112,53.36 87.884,53.698C84.547,58.66 83.637,64.479 86.874,70.368C91.113,78.082 101.653,81.629 113.465,81.629C120.513,81.629 128.682,80.797 135.584,78.147ZM135.895,70.51C126.154,73.779 116.081,75.19 105.461,73.538C100.294,72.734 96.929,70.381 94.311,67.064C92.107,64.272 92.456,60.334 93.881,57.183C95.429,53.762 97.869,51.83 100.294,50.495C100.577,50.339 100.532,49.982 100.294,49.851C93.025,45.991 84.015,45.114 76.065,47.193C69.088,49.017 62.414,52.021 55.728,57.183C50.234,61.424 32.463,74.716 7.121,76.974C6.979,75.225 6.906,73.459 6.906,71.675C6.904,36.077 35.803,7.173 71.402,7.171C106.612,7.169 135.273,35.442 135.895,70.51Z" style="fill:rgb(36,58,85);"/>
    <path d="M7.962,83.348C26.567,82.52 39.523,78.377 54.782,69.864C68.807,62.039 76.036,54.983 87.427,53.158C87.884,53.085 88.112,53.36 87.884,53.698C84.547,58.66 83.637,64.479 86.874,70.368C91.113,78.082 101.653,81.629 113.465,81.629C120.513,81.629 128.682,80.797 135.584,78.147L135.573,78.258C135.566,78.326 135.559,78.394 135.552,78.461L135.54,78.576C122.852,83.039 115.281,86.626 100.71,85.798C91.902,85.297 79.267,79.173 72.223,77.611C62.175,75.383 47.805,78.223 35.751,81.629C26.305,84.027 17.443,83.431 7.996,83.534L7.987,83.483L7.962,83.348Z" style="fill:rgb(83,165,211);"/>
    <path d="M71.697,-0C111.268,-0 143.395,32.126 143.395,71.697C143.395,111.268 111.268,143.395 71.697,143.395C32.126,143.395 0,111.268 0,71.697C0,32.126 32.126,-0 71.697,-0ZM71.402,7.171C107.001,7.169 135.904,36.069 135.906,71.667C135.908,107.266 107.008,136.169 71.41,136.171C35.811,136.173 6.908,107.274 6.906,71.675C6.904,36.077 35.803,7.173 71.402,7.171Z" style="fill:rgb(36,58,85);"/>
    <path d="M7.034,75.758C6.949,74.406 6.906,73.046 6.906,71.675C6.904,36.077 35.803,7.173 71.402,7.171C106.217,7.169 134.629,34.811 135.864,69.328C124.132,72.418 112.322,73.739 104.697,71.786C97.753,70.007 94.129,65.352 95.588,61.153C96.44,58.701 98.541,57.161 101.412,56.064C107.326,53.805 106.787,49.048 104.697,47.558C100.582,44.625 94.977,42.767 88.614,42.445C66.467,41.326 58.579,50.17 43.256,61.153C31.956,69.252 19.355,73.705 7.034,75.758Z" style="fill:url(#_Linear2);"/>
    <path d="M71.697,-0C111.268,-0 143.395,32.126 143.395,71.697C143.395,111.268 111.268,143.395 71.697,143.395C32.126,143.395 0,111.268 0,71.697C0,32.126 32.126,-0 71.697,-0ZM135.584,78.147C132.334,110.706 104.822,136.169 71.41,136.171C39.798,136.173 13.466,113.385 7.962,83.348C26.567,82.519 39.524,78.377 54.782,69.864C68.807,62.039 76.036,54.983 87.427,53.158C87.884,53.085 88.112,53.36 87.884,53.698C84.547,58.66 83.637,64.479 86.874,70.368C91.113,78.082 101.653,81.629 113.465,81.629C120.513,81.629 128.682,80.797 135.584,78.147ZM135.895,70.51C126.154,73.779 116.081,75.19 105.461,73.538C100.294,72.734 96.929,70.381 94.311,67.064C92.107,64.272 92.456,60.334 93.881,57.183C95.429,53.762 97.869,51.83 100.294,50.495C100.577,50.339 100.532,49.982 100.294,49.851C93.025,45.991 84.015,45.114 76.065,47.193C69.088,49.017 62.414,52.021 55.728,57.183C50.234,61.424 32.463,74.716 7.121,76.974C6.979,75.225 6.906,73.459 6.906,71.675C6.904,36.077 35.803,7.173 71.402,7.171C106.612,7.169 135.273,35.442 135.895,70.51Z" style="fill:rgb(36,58,85);"/>
    <defs>
        <linearGradient id="_Linear1" x1="0" y1="0" x2="1" y2="0" gradientUnits="userSpaceOnUse" gradientTransform="matrix(1.156e-14,188.788,-188.788,1.156e-14,998.904,358.166)"><stop offset="0" style="stop-color:white;stop-opacity:1"/><stop offset="1" style="stop-color:rgb(255,221,79);stop-opacity:1"/></linearGradient>
        <linearGradient id="_Linear2" x1="0" y1="0" x2="1" y2="0" gradientUnits="userSpaceOnUse" gradientTransform="matrix(134.24,0,0,134.24,-9.21492,53.1464)"><stop offset="0" style="stop-color:rgb(255,210,6);stop-opacity:1"/><stop offset="1" style="stop-color:rgb(255,162,3);stop-opacity:1"/></linearGradient>
    </defs>
</svg>
