<?xml version="1.0" encoding="UTF-8" standalone="no"?>
<svg viewBox="720 230 560 359" version="1.1" xmlns="http://www.w3.org/2000/svg" xmlns:xlink="http://www.w3.org/1999/xlink" xml:space="preserve" style="fill-rule:evenodd;clip-rule:evenodd;stroke-linejoin:round;stroke-miterlimit:2;">
    <g transform="matrix(1,0,0,1,-1.13687e-13,-9.79009)">
        <path d="M747.658,546.955C746.68,540.885 746.179,534.722 746.179,528.48C746.179,434.481 859.912,358.166 1000,358.166C1140.09,358.166 1253.82,434.481 1253.82,528.48C1253.82,534.722 1253.32,540.885 1252.34,546.955L747.658,546.955Z" style="fill:url(#_Linear1);"/>
    </g>
    <g transform="matrix(1,0,0,1,0,-0.0874382)">
        <path d="M757.037,500.909C761.983,371.072 868.942,267.174 1000,267.153L1000.79,267.154C1123.1,267.571 1224.24,358.433 1240.77,476.253C1194.07,489.424 1154.49,493.415 1124.06,485.62C1097.96,478.934 1084.33,461.432 1089.82,445.643C1093.02,436.426 1100.92,430.635 1111.71,426.513C1133.95,418.02 1131.92,400.136 1124.06,394.534C1108.6,383.507 1087.52,376.519 1063.6,375.31C980.338,371.103 950.679,404.353 893.072,445.643C849.806,476.654 804.178,493.381 757.037,500.909Z" style="fill:rgb(255,210,6);"/>
    </g>
    <g transform="matrix(1,0,0,1,0,-0.0874382)">
        <path d="M757.037,500.909C761.983,371.072 868.942,267.174 1000,267.153L1000.79,267.154C1123.1,267.571 1224.24,358.433 1240.77,476.253C1194.07,489.424 1154.49,493.415 1124.06,485.62C1097.96,478.934 1084.33,461.432 1089.82,445.643C1093.02,436.426 1100.92,430.635 1111.71,426.513C1133.95,418.02 1131.92,400.136 1124.06,394.534C1108.6,383.507 1087.52,376.519 1063.6,375.31C980.338,371.103 950.679,404.353 893.072,445.643C849.806,476.654 804.178,493.381 757.037,500.909Z" style="fill:url(#_Linear2);"/>
    </g>
    <g transform="matrix(1.17188,0,0,1.17188,-98.8807,-335.257)">
        <path d="M725.068,717.482C809.281,711.723 868.461,667.467 886.478,653.558C907.929,636.999 929.341,627.362 951.724,621.508C977.229,614.838 1006.13,617.652 1029.46,630.037C1030.22,630.457 1030.36,631.601 1029.46,632.101C1021.68,636.385 1013.85,642.583 1008.88,653.558C1004.31,663.667 1003.19,676.301 1010.26,685.258C1018.66,695.9 1029.46,703.448 1046.03,706.027C1080.59,711.404 1113.34,706.671 1145.01,695.859L1150.49,717.482C1126.9,728.636 1097.04,731.985 1071.71,731.985C1033.82,731.985 1000,720.606 986.4,695.859C976.016,676.964 978.937,658.298 989.642,642.379C990.372,641.294 989.642,640.411 988.174,640.647C951.631,646.5 928.438,669.138 883.443,694.243C832.288,722.783 789.197,736.011 725.068,737.795L725.068,717.482Z" style="fill:rgb(36,58,85);"/>
    </g>
    <g transform="matrix(1.17188,0,0,1.17188,-98.8807,-335.257)">
        <path d="M730.549,737.612C791.686,735.236 833.762,721.961 883.443,694.243C928.438,669.138 951.631,646.5 988.174,640.647C989.642,640.411 990.372,641.294 989.642,642.379C978.937,658.298 976.016,676.964 986.4,695.859C1000,720.606 1033.82,731.985 1071.71,731.985C1095.18,731.985 1122.53,729.11 1145.19,719.816C1145.19,720.373 1145.19,720.927 1145.19,721.482C1145.19,734.914 1144.82,746.437 1142.44,759.045L732.981,759.045C731.604,751.731 730.899,744.782 730.549,737.612Z" style="fill:rgb(38,118,182);"/>
    </g>
    <g transform="matrix(1.17188,0,0,1.17188,-98.8807,-335.257)">
        <path d="M730.575,738.119L730.549,737.612C791.686,735.236 833.762,721.961 883.443,694.243C928.438,669.138 951.631,646.5 988.174,640.647C989.642,640.411 990.372,641.294 989.642,642.379C978.937,658.298 976.016,676.964 986.4,695.859C1000,720.606 1033.82,731.985 1071.71,731.985C1095.18,731.985 1122.53,729.11 1145.19,719.816C1145.19,720.292 1145.19,720.765 1145.19,721.239C1103.8,736.272 1057.76,741.932 1009.99,739.218C981.734,737.612 961.995,724.106 939.397,719.095C907.161,711.946 862.929,716.116 824.257,727.044C793.03,734.973 761.804,737.946 730.575,738.119Z" style="fill:rgb(83,165,211);"/>
    </g>
    <g transform="matrix(1.17188,0,0,1.17188,-98.8807,-335.257)">
        <path d="M1142.44,759.045C1144.82,746.437 1145.19,734.914 1145.19,721.482C1145.19,607.2 1052.61,514.372 938.382,513.983L937.712,513.982C823.189,514 730.23,606.971 730.23,721.482C730.23,734.914 730.607,746.437 732.981,759.045L1142.44,759.045ZM714.666,780.515C711.314,779.804 709.358,777.449 709.075,772.729C708.052,755.668 707.549,738.588 707.73,721.482L707.693,721.482C707.693,594.541 810.753,491.482 937.693,491.482L937.73,491.482C1064.67,491.482 1167.73,594.541 1167.73,721.482L1167.69,721.482C1167.87,738.588 1167.37,755.668 1166.35,772.729C1166.07,777.449 1164.11,779.804 1160.76,780.515L714.666,780.515Z" style="fill:rgb(36,58,85);"/>
    </g>
    <defs>
        <linearGradient id="_Linear1" x1="0" y1="0" x2="1" y2="0" gradientUnits="userSpaceOnUse" gradientTransform="matrix(1.156e-14,188.788,-188.788,1.156e-14,998.904,358.166)"><stop offset="0" style="stop-color:white;stop-opacity:1"/><stop offset="1" style="stop-color:rgb(255,221,79);stop-opacity:1"/></linearGradient>
        <linearGradient id="_Linear2" x1="0" y1="0" x2="1" y2="0" gradientUnits="userSpaceOnUse" gradientTransform="matrix(305.128,-27.2774,27.2774,305.128,730.448,384.031)"><stop offset="0" style="stop-color:rgb(255,210,6);stop-opacity:1"/><stop offset="0.46" style="stop-color:rgb(255,196,5);stop-opacity:1"/><stop offset="1" style="stop-color:rgb(255,162,3);stop-opacity:1"/></linearGradient>
    </defs>
</svg>
