<?xml version="1.0" encoding="UTF-8" standalone="no"?>
<!DOCTYPE svg PUBLIC "-//W3C//DTD SVG 1.1//EN" "http://www.w3.org/Graphics/SVG/1.1/DTD/svg11.dtd">
<svg width="100%" height="100%" viewBox="0 0 5301 3787" version="1.1" xmlns="http://www.w3.org/2000/svg" xmlns:xlink="http://www.w3.org/1999/xlink" xml:space="preserve" xmlns:serif="http://www.serif.com/" style="fill-rule:evenodd;clip-rule:evenodd;stroke-linejoin:round;stroke-miterlimit:2;">
    <g transform="matrix(1.5,0,0,1.5,0,0)">
        <g transform="matrix(4.08323,0,0,4.08323,-2329.14,-910.558)">
            <path d="M613.75,744.491C605.26,744.491 597.105,743.355 589.285,741.084C581.465,738.812 575.175,735.872 570.415,732.262L578.759,713.639C583.274,716.884 588.664,719.545 594.927,721.624C601.189,723.703 607.504,724.742 613.871,724.742C618.784,724.742 622.733,724.254 625.717,723.278C628.702,722.302 630.895,720.955 632.296,719.238C633.697,717.521 634.398,715.565 634.398,713.371C634.398,710.529 633.273,708.26 631.022,706.564C628.771,704.868 625.821,703.488 622.173,702.422C618.524,701.357 614.5,700.347 610.1,699.394C605.701,698.441 601.292,697.27 596.873,695.883C592.454,694.495 588.42,692.681 584.771,690.443C581.122,688.204 578.173,685.245 575.923,681.567C573.673,677.889 572.548,673.213 572.548,667.538C572.548,661.502 574.183,655.988 577.454,650.994C580.724,646 585.681,642.004 592.325,639.006C598.968,636.008 607.334,634.509 617.421,634.509C624.065,634.509 630.639,635.3 637.142,636.882C643.646,638.463 649.378,640.794 654.338,643.874L646.665,662.529C641.763,659.711 636.808,657.628 631.802,656.279C626.795,654.931 621.931,654.257 617.21,654.257C612.419,654.257 608.521,654.806 605.515,655.903C602.51,657 600.332,658.453 598.982,660.261C597.631,662.069 596.956,664.101 596.956,666.355C596.956,669.158 598.081,671.397 600.332,673.073C602.583,674.749 605.533,676.094 609.181,677.109C612.83,678.124 616.864,679.113 621.283,680.077C625.702,681.04 630.111,682.201 634.511,683.559C638.91,684.916 642.934,686.699 646.583,688.907C650.232,691.115 653.181,694.048 655.432,697.705C657.683,701.363 658.808,705.978 658.808,711.552C658.808,717.488 657.157,722.952 653.856,727.945C650.555,732.938 645.577,736.944 638.923,739.963C632.269,742.981 623.878,744.491 613.75,744.491ZM1293.55,744.491C1285.06,744.491 1276.91,743.355 1269.09,741.084C1261.27,738.812 1254.98,735.872 1250.22,732.262L1258.56,713.639C1263.08,716.884 1268.47,719.545 1274.73,721.624C1280.99,723.703 1287.31,724.742 1293.67,724.742C1298.59,724.742 1302.54,724.254 1305.52,723.278C1308.51,722.302 1310.7,720.955 1312.1,719.238C1313.5,717.521 1314.2,715.565 1314.2,713.371C1314.2,710.529 1313.08,708.26 1310.83,706.564C1308.58,704.868 1305.63,703.488 1301.98,702.422C1298.33,701.357 1294.3,700.347 1289.9,699.394C1285.51,698.441 1281.1,697.27 1276.68,695.883C1272.26,694.495 1268.22,692.681 1264.58,690.443C1260.93,688.204 1257.98,685.245 1255.73,681.567C1253.48,677.889 1252.35,673.213 1252.35,667.538C1252.35,661.502 1253.99,655.988 1257.26,650.994C1260.53,646 1265.49,642.004 1272.13,639.006C1278.77,636.008 1287.14,634.509 1297.23,634.509C1303.87,634.509 1310.44,635.3 1316.95,636.882C1323.45,638.463 1329.18,640.794 1334.14,643.874L1326.47,662.529C1321.57,659.711 1316.61,657.628 1311.61,656.279C1306.6,654.931 1301.74,654.257 1297.01,654.257C1292.22,654.257 1288.33,654.806 1285.32,655.903C1282.32,657 1280.14,658.453 1278.79,660.261C1277.44,662.069 1276.76,664.101 1276.76,666.355C1276.76,669.158 1277.89,671.397 1280.14,673.073C1282.39,674.749 1285.34,676.094 1288.99,677.109C1292.63,678.124 1296.67,679.113 1301.09,680.077C1305.51,681.04 1309.92,682.201 1314.32,683.559C1318.71,684.916 1322.74,686.699 1326.39,688.907C1330.04,691.115 1332.99,694.048 1335.24,697.705C1337.49,701.363 1338.61,705.978 1338.61,711.552C1338.61,717.488 1336.96,722.952 1333.66,727.945C1330.36,732.938 1325.38,736.944 1318.73,739.963C1312.07,742.981 1303.68,744.491 1293.55,744.491ZM722.436,745.072C707.344,745.072 695.544,740.878 687.035,732.49C678.527,724.101 674.273,712.075 674.273,696.411L674.273,636.882L698.954,636.882L698.954,695.623C698.954,705.685 701.035,712.964 705.197,717.459C709.359,721.955 715.176,724.203 722.647,724.203C730.16,724.203 735.987,721.955 740.129,717.459C744.27,712.964 746.34,705.685 746.34,695.623L746.34,636.882L770.599,636.882L770.599,696.411C770.599,712.075 766.344,724.101 757.835,732.49C749.327,740.878 737.527,745.072 722.436,745.072ZM964.968,744.491C956.701,744.491 949.052,743.148 942.02,740.463C934.989,737.777 928.889,733.967 923.722,729.032C918.555,724.096 914.533,718.28 911.656,711.583C908.779,704.885 907.341,697.524 907.341,689.5C907.341,681.475 908.779,674.115 911.656,667.417C914.533,660.72 918.57,654.903 923.769,649.968C928.967,645.033 935.081,641.222 942.112,638.537C949.143,635.852 956.792,634.509 965.06,634.509C974.275,634.509 982.62,636.104 990.095,639.293C997.57,642.483 1003.82,647.157 1008.84,653.314L993.076,667.935C989.445,663.799 985.393,660.672 980.921,658.555C976.448,656.437 971.555,655.378 966.243,655.378C961.27,655.378 956.713,656.2 952.573,657.845C948.432,659.489 944.845,661.828 941.81,664.862C938.776,667.895 936.421,671.502 934.747,675.682C933.073,679.862 932.235,684.468 932.235,689.5C932.235,694.532 933.073,699.138 934.747,703.318C936.421,707.498 938.776,711.104 941.81,714.138C944.845,717.172 948.432,719.511 952.573,721.155C956.713,722.799 961.27,723.621 966.243,723.621C971.555,723.621 976.448,722.563 980.921,720.445C985.393,718.327 989.445,715.17 993.076,710.972L1008.84,725.595C1003.82,731.711 997.57,736.39 990.095,739.63C982.62,742.87 974.244,744.491 964.968,744.491ZM1068.53,744.496C1060.16,744.496 1052.41,743.128 1045.3,740.392C1038.18,737.656 1032.02,733.811 1026.8,728.856C1021.58,723.901 1017.52,718.082 1014.63,711.401C1011.73,704.719 1010.28,697.411 1010.28,689.477C1010.28,681.543 1011.73,674.249 1014.63,667.595C1017.52,660.941 1021.59,655.128 1026.81,650.156C1032.04,645.183 1038.19,641.333 1045.29,638.606C1052.38,635.879 1060.11,634.515 1068.48,634.515C1076.89,634.515 1084.63,635.873 1091.68,638.589C1098.74,641.305 1104.88,645.14 1110.09,650.093C1115.3,655.045 1119.35,660.859 1122.25,667.535C1125.15,674.21 1126.6,681.527 1126.6,689.487C1126.6,697.446 1125.15,704.774 1122.25,711.471C1119.35,718.168 1115.3,723.988 1110.09,728.932C1104.88,733.876 1098.74,737.706 1091.68,740.422C1084.63,743.138 1076.91,744.496 1068.53,744.496ZM1377.22,742.568L1377.22,656.279L1343.22,656.279L1343.22,636.168L1435.91,636.168L1435.91,656.279L1401.9,656.279L1401.9,742.568L1377.22,742.568ZM866.043,701.934L866.043,637.254L890.365,637.254L890.365,743.654L870.049,743.654L817.051,678.974L817.051,743.654L792.731,743.654L792.731,637.254L813.047,637.254L866.043,701.934ZM1160.22,720.621L1150.76,743.383L1125.46,743.383L1172.89,636.983L1197.24,636.983L1244.76,743.383L1219.05,743.383L1201.82,701.934L1209.58,720.621L1160.22,720.621ZM1068.48,723.627C1073.23,723.627 1077.62,722.801 1081.64,721.148C1085.67,719.495 1089.18,717.151 1092.18,714.115C1095.18,711.08 1097.52,707.479 1099.19,703.31C1100.87,699.142 1101.7,694.531 1101.7,689.477C1101.7,684.425 1100.87,679.826 1099.2,675.682C1097.54,671.538 1095.2,667.946 1092.2,664.908C1089.19,661.869 1085.68,659.523 1081.65,657.867C1077.63,656.212 1073.24,655.384 1068.49,655.384C1063.74,655.384 1059.34,656.213 1055.3,657.87C1051.25,659.526 1047.73,661.876 1044.71,664.919C1041.7,667.961 1039.36,671.557 1037.68,675.706C1036.01,679.855 1035.17,684.445 1035.17,689.475C1035.17,694.507 1036.01,699.106 1037.68,703.274C1039.35,707.441 1041.69,711.053 1044.7,714.11C1047.7,717.166 1051.23,719.517 1055.28,721.161C1059.33,722.805 1063.73,723.627 1068.48,723.627ZM1184.9,661.257L1201.82,701.934L1167.99,701.934L1160.22,720.621L1184.9,661.257Z" style="fill:white;"/>
        </g>
        <g transform="matrix(4.08323,0,0,4.08323,-2303.69,-919.645)">
            <path d="M1259.24,843.341C1254.77,843.341 1250.48,842.743 1246.36,841.547C1242.24,840.352 1238.93,838.804 1236.43,836.904L1240.82,827.103C1243.2,828.811 1246.03,830.211 1249.33,831.306C1252.62,832.4 1255.95,832.947 1259.3,832.947C1261.88,832.947 1263.96,832.69 1265.54,832.176C1267.11,831.662 1268.26,830.954 1269,830.05C1269.74,829.146 1270.1,828.117 1270.1,826.962C1270.1,825.466 1269.51,824.272 1268.33,823.379C1267.14,822.487 1265.59,821.76 1263.67,821.199C1261.75,820.639 1259.63,820.107 1257.32,819.606C1255,819.104 1252.68,818.488 1250.35,817.757C1248.03,817.027 1245.9,816.073 1243.98,814.894C1242.06,813.716 1240.51,812.159 1239.33,810.223C1238.14,808.287 1237.55,805.826 1237.55,802.839C1237.55,799.663 1238.41,796.76 1240.13,794.132C1241.85,791.504 1244.46,789.4 1247.96,787.822C1251.46,786.245 1255.86,785.456 1261.17,785.456C1264.66,785.456 1268.12,785.872 1271.55,786.704C1274.97,787.537 1277.99,788.764 1280.6,790.384L1276.56,800.203C1273.98,798.72 1271.37,797.623 1268.74,796.914C1266.1,796.204 1263.54,795.849 1261.06,795.849C1258.54,795.849 1256.48,796.138 1254.9,796.716C1253.32,797.293 1252.17,798.058 1251.46,799.009C1250.75,799.961 1250.4,801.03 1250.4,802.217C1250.4,803.692 1250.99,804.87 1252.17,805.752C1253.36,806.635 1254.91,807.343 1256.83,807.877C1258.75,808.411 1260.88,808.932 1263.2,809.439C1265.53,809.946 1267.85,810.557 1270.16,811.271C1272.48,811.986 1274.6,812.924 1276.52,814.086C1278.44,815.248 1279.99,816.792 1281.17,818.717C1282.36,820.642 1282.95,823.071 1282.95,826.004C1282.95,829.129 1282.08,832.005 1280.35,834.632C1278.61,837.26 1275.99,839.369 1272.49,840.957C1268.98,842.546 1264.57,843.341 1259.24,843.341ZM805.214,843.341C800.805,843.341 796.729,842.621 792.984,841.181C789.24,839.741 785.994,837.717 783.248,835.109C780.502,832.501 778.366,829.439 776.841,825.922C775.316,822.405 774.554,818.559 774.554,814.383C774.554,810.207 775.316,806.368 776.841,802.866C778.366,799.364 780.504,796.305 783.254,793.687C786.004,791.07 789.245,789.044 792.977,787.609C796.71,786.173 800.78,785.456 805.187,785.456C809.613,785.456 813.683,786.17 817.397,787.6C821.112,789.03 824.34,791.048 827.084,793.654C829.827,796.261 831.961,799.321 833.486,802.834C835.011,806.348 835.774,810.199 835.774,814.388C835.774,818.577 835.011,822.434 833.486,825.959C831.961,829.483 829.827,832.547 827.084,835.149C824.34,837.751 821.112,839.767 817.397,841.196C813.683,842.626 809.622,843.341 805.214,843.341ZM882.977,843.341C878.569,843.341 874.492,842.621 870.748,841.181C867.003,839.741 863.758,837.717 861.011,835.109C858.265,832.501 856.129,829.439 854.604,825.922C853.079,822.405 852.317,818.559 852.317,814.383C852.317,810.207 853.079,806.368 854.604,802.866C856.129,799.364 858.267,796.305 861.017,793.687C863.767,791.07 867.008,789.044 870.741,787.609C874.473,786.173 878.543,785.456 882.951,785.456C887.377,785.456 891.447,786.17 895.161,787.6C898.875,789.03 902.104,791.048 904.847,793.654C907.59,796.261 909.724,799.321 911.249,802.834C912.774,806.348 913.537,810.199 913.537,814.388C913.537,818.577 912.774,822.434 911.249,825.959C909.724,829.483 907.59,832.547 904.847,835.149C902.104,837.751 898.875,839.767 895.161,841.196C891.447,842.626 887.385,843.341 882.977,843.341ZM1188.35,843.386C1183.94,843.386 1179.87,842.666 1176.12,841.226C1172.38,839.786 1169.13,837.762 1166.38,835.154C1163.64,832.546 1161.5,829.484 1159.98,825.967C1158.45,822.451 1157.69,818.605 1157.69,814.429C1157.69,810.253 1158.45,806.414 1159.98,802.912C1161.5,799.41 1163.64,796.35 1166.39,793.733C1169.14,791.116 1172.38,789.09 1176.11,787.654C1179.85,786.219 1183.92,785.501 1188.32,785.501C1192.75,785.501 1196.82,786.216 1200.53,787.646C1204.25,789.075 1207.48,791.093 1210.22,793.7C1212.96,796.307 1215.1,799.367 1216.62,802.88C1218.15,806.393 1218.91,810.245 1218.91,814.434C1218.91,818.623 1218.15,822.48 1216.62,826.004C1215.1,829.529 1212.96,832.592 1210.22,835.194C1207.48,837.796 1204.25,839.812 1200.53,841.242C1196.82,842.671 1192.76,843.386 1188.35,843.386ZM723.898,827.492L723.898,842.942L710.908,842.942L710.908,786.942L735.115,786.942C740.15,786.942 744.485,787.756 748.121,789.382C751.757,791.008 754.559,793.344 756.527,796.388C758.494,799.433 759.478,803.05 759.478,807.241C759.478,811.4 758.494,814.997 756.527,818.031C754.559,821.065 751.757,823.401 748.121,825.037C744.485,826.674 740.15,827.492 735.115,827.492L723.898,827.492ZM934.505,842.942L934.505,786.942L947.495,786.942L947.495,832.357L975.527,832.357L975.527,842.942L934.505,842.942ZM1034.64,827.374L1034.64,842.824L1021.65,842.824L1021.65,786.824L1045.85,786.824C1050.89,786.824 1055.22,787.637 1058.86,789.263C1062.5,790.889 1065.3,793.225 1067.27,796.269C1069.23,799.314 1070.22,802.932 1070.22,807.122C1070.22,811.282 1069.23,814.878 1067.27,817.912C1065.3,820.947 1062.5,823.282 1058.86,824.919C1055.22,826.555 1050.89,827.374 1045.85,827.374L1034.64,827.374ZM1114.04,827.17C1117.09,827.128 1114.04,827.17 1114.04,827.17C1113.83,827.174 1113.62,827.175 1113.4,827.175L1102.18,827.175L1102.18,842.8L1089.19,842.8L1089.19,786.8L1113.4,786.8C1118.43,786.8 1122.77,787.613 1126.4,789.239C1130.04,790.866 1132.84,793.201 1134.81,796.246C1136.78,799.29 1137.76,802.908 1137.76,807.099C1137.76,811.258 1136.78,814.841 1134.81,817.849C1132.84,820.856 1130.04,823.162 1126.4,824.767L1126.3,824.812L1126.3,824.817L1138.82,842.8L1124.84,842.8L1114.04,827.17ZM805.186,832.357C807.687,832.357 809.996,831.922 812.114,831.052C814.232,830.182 816.081,828.948 817.659,827.351C819.238,825.753 820.468,823.857 821.349,821.664C822.231,819.47 822.671,817.043 822.671,814.383C822.671,811.724 822.232,809.304 821.355,807.122C820.477,804.941 819.249,803.051 817.668,801.452C816.088,799.853 814.238,798.617 812.119,797.746C810.001,796.875 807.69,796.439 805.189,796.439C802.688,796.439 800.374,796.875 798.246,797.747C796.119,798.62 794.262,799.856 792.676,801.457C791.09,803.059 789.857,804.951 788.977,807.135C788.096,809.319 787.656,811.734 787.656,814.382C787.656,817.03 788.096,819.451 788.975,821.644C789.854,823.838 791.085,825.739 792.668,827.347C794.251,828.956 796.108,830.193 798.239,831.059C800.37,831.924 802.685,832.357 805.186,832.357ZM882.949,832.357C885.45,832.357 887.76,831.922 889.878,831.052C891.996,830.182 893.844,828.948 895.423,827.351C897.001,825.753 898.231,823.857 899.113,821.664C899.994,819.47 900.434,817.043 900.434,814.383C900.434,811.724 899.996,809.304 899.118,807.122C898.241,804.941 897.012,803.051 895.431,801.452C893.851,799.853 892.001,798.617 889.883,797.746C887.764,796.875 885.454,796.439 882.952,796.439C880.451,796.439 878.137,796.875 876.009,797.747C873.882,798.62 872.025,799.856 870.439,801.457C868.854,803.059 867.621,804.951 866.74,807.135C865.86,809.319 865.419,811.734 865.419,814.382C865.419,817.03 865.859,819.451 866.738,821.644C867.617,823.838 868.848,825.739 870.431,827.347C872.014,828.956 873.871,830.193 876.002,831.059C878.133,831.924 880.449,832.357 882.949,832.357ZM1188.32,832.402C1190.82,832.402 1193.13,831.967 1195.25,831.097C1197.37,830.227 1199.22,828.994 1200.8,827.396C1202.37,825.799 1203.6,823.903 1204.49,821.709C1205.37,819.516 1205.81,817.089 1205.81,814.429C1205.81,811.77 1205.37,809.349 1204.49,807.168C1203.61,804.987 1202.38,803.097 1200.8,801.497C1199.22,799.898 1197.37,798.663 1195.26,797.792C1193.14,796.921 1190.83,796.485 1188.33,796.485C1185.82,796.485 1183.51,796.921 1181.38,797.793C1179.26,798.665 1177.4,799.902 1175.81,801.503C1174.23,803.104 1172.99,804.997 1172.11,807.181C1171.23,809.364 1170.79,811.78 1170.79,814.427C1170.79,817.076 1171.23,819.497 1172.11,821.69C1172.99,823.883 1174.22,825.784 1175.8,827.393C1177.39,829.002 1179.24,830.239 1181.38,831.104C1183.51,831.97 1185.82,832.402 1188.32,832.402ZM723.898,816.94L734.447,816.94C738.412,816.94 741.391,816.088 743.385,814.383C745.379,812.679 746.375,810.298 746.375,807.241C746.375,804.153 745.379,801.757 743.385,800.052C741.391,798.348 738.412,797.496 734.447,797.496L723.898,797.496L723.898,827.492L723.898,816.94ZM1102.18,797.354L1102.18,816.845L1112.73,816.845C1116.69,816.845 1119.67,815.985 1121.67,814.264C1123.66,812.544 1124.66,810.155 1124.66,807.099C1124.66,804.01 1123.66,801.614 1121.67,799.91C1119.67,798.206 1116.69,797.354 1112.73,797.354L1102.18,797.354ZM1034.64,797.377L1034.64,816.821L1045.19,816.821C1049.15,816.821 1052.13,815.969 1054.12,814.264C1056.12,812.56 1057.11,810.179 1057.11,807.122C1057.11,804.034 1056.12,801.638 1054.12,799.934C1052.13,798.23 1049.15,797.377 1045.19,797.377L1034.64,797.377Z" style="fill:white;"/>
        </g>
        <g transform="matrix(4.34001,0,0,4.34001,-2573.01,-1044.63)">
            <g transform="matrix(1,0,0,1,-1.13687e-13,-9.79009)">
                <path d="M747.658,546.955C746.68,540.885 746.179,534.722 746.179,528.48C746.179,434.481 859.912,358.166 1000,358.166C1140.09,358.166 1253.82,434.481 1253.82,528.48C1253.82,534.722 1253.32,540.885 1252.34,546.955L747.658,546.955Z" style="fill:url(#_Linear1);"/>
            </g>
            <g transform="matrix(1,0,0,1,0,-0.0874382)">
                <path d="M757.037,500.909C761.983,371.072 868.942,267.174 1000,267.153L1000.79,267.154C1123.1,267.571 1224.24,358.433 1240.77,476.253C1194.07,489.424 1154.49,493.415 1124.06,485.62C1097.96,478.934 1084.33,461.432 1089.82,445.643C1093.02,436.426 1100.92,430.635 1111.71,426.513C1133.95,418.02 1131.92,400.136 1124.06,394.534C1108.6,383.507 1087.52,376.519 1063.6,375.31C980.338,371.103 950.679,404.353 893.072,445.643C849.806,476.654 804.178,493.381 757.037,500.909Z" style="fill:rgb(255,210,6);"/>
            </g>
            <g transform="matrix(1,0,0,1,0,-0.0874382)">
                <path d="M757.037,500.909C761.983,371.072 868.942,267.174 1000,267.153L1000.79,267.154C1123.1,267.571 1224.24,358.433 1240.77,476.253C1194.07,489.424 1154.49,493.415 1124.06,485.62C1097.96,478.934 1084.33,461.432 1089.82,445.643C1093.02,436.426 1100.92,430.635 1111.71,426.513C1133.95,418.02 1131.92,400.136 1124.06,394.534C1108.6,383.507 1087.52,376.519 1063.6,375.31C980.338,371.103 950.679,404.353 893.072,445.643C849.806,476.654 804.178,493.381 757.037,500.909Z" style="fill:url(#_Linear2);"/>
            </g>
            <g transform="matrix(1.17188,0,0,1.17188,-98.8807,-335.257)">
                <path d="M725.068,717.482C809.281,711.723 868.461,667.467 886.478,653.558C907.929,636.999 929.341,627.362 951.724,621.508C977.229,614.838 1006.13,617.652 1029.46,630.037C1030.22,630.457 1030.36,631.601 1029.46,632.101C1021.68,636.385 1013.85,642.583 1008.88,653.558C1004.31,663.667 1003.19,676.301 1010.26,685.258C1018.66,695.9 1029.46,703.448 1046.03,706.027C1080.59,711.404 1113.34,706.671 1145.01,695.859L1150.49,717.482C1126.9,728.636 1097.04,731.985 1071.71,731.985C1033.82,731.985 1000,720.606 986.4,695.859C976.016,676.964 978.937,658.298 989.642,642.379C990.372,641.294 989.642,640.411 988.174,640.647C951.631,646.5 928.438,669.138 883.443,694.243C832.288,722.783 789.197,736.011 725.068,737.795L725.068,717.482Z" style="fill:white;"/>
            </g>
            <g transform="matrix(1.17188,0,0,1.17188,-98.8807,-335.257)">
                <path d="M730.549,737.612C791.686,735.236 833.762,721.961 883.443,694.243C928.438,669.138 951.631,646.5 988.174,640.647C989.642,640.411 990.372,641.294 989.642,642.379C978.937,658.298 976.016,676.964 986.4,695.859C1000,720.606 1033.82,731.985 1071.71,731.985C1095.18,731.985 1122.53,729.11 1145.19,719.816C1145.19,720.373 1145.19,720.927 1145.19,721.482C1145.19,734.914 1144.82,746.437 1142.44,759.045L732.981,759.045C731.604,751.731 730.899,744.782 730.549,737.612Z" style="fill:rgb(38,118,182);"/>
            </g>
            <g transform="matrix(1.17188,0,0,1.17188,-98.8807,-335.257)">
                <path d="M730.575,738.119L730.549,737.612C791.686,735.236 833.762,721.961 883.443,694.243C928.438,669.138 951.631,646.5 988.174,640.647C989.642,640.411 990.372,641.294 989.642,642.379C978.937,658.298 976.016,676.964 986.4,695.859C1000,720.606 1033.82,731.985 1071.71,731.985C1095.18,731.985 1122.53,729.11 1145.19,719.816C1145.19,720.292 1145.19,720.765 1145.19,721.239C1103.8,736.272 1057.76,741.932 1009.99,739.218C981.734,737.612 961.995,724.106 939.397,719.095C907.161,711.946 862.929,716.116 824.257,727.044C793.03,734.973 761.804,737.946 730.575,738.119Z" style="fill:rgb(83,165,211);"/>
            </g>
            <g transform="matrix(1.17188,0,0,1.17188,-98.8807,-335.257)">
                <path d="M1142.44,759.045C1144.82,746.437 1145.19,734.914 1145.19,721.482C1145.19,607.2 1052.61,514.372 938.382,513.983L937.712,513.982C823.189,514 730.23,606.971 730.23,721.482C730.23,734.914 730.607,746.437 732.981,759.045L1142.44,759.045ZM714.666,780.515C711.314,779.804 709.358,777.449 709.075,772.729C708.052,755.668 707.549,738.588 707.73,721.482L707.693,721.482C707.693,594.541 810.753,491.482 937.693,491.482L937.73,491.482C1064.67,491.482 1167.73,594.541 1167.73,721.482L1167.69,721.482C1167.87,738.588 1167.37,755.668 1166.35,772.729C1166.07,777.449 1164.11,779.804 1160.76,780.515L714.666,780.515Z" style="fill:white;"/>
            </g>
        </g>
    </g>
    <defs>
        <linearGradient id="_Linear1" x1="0" y1="0" x2="1" y2="0" gradientUnits="userSpaceOnUse" gradientTransform="matrix(1.156e-14,188.788,-188.788,1.156e-14,998.904,358.166)"><stop offset="0" style="stop-color:white;stop-opacity:1"/><stop offset="1" style="stop-color:rgb(255,221,79);stop-opacity:1"/></linearGradient>
        <linearGradient id="_Linear2" x1="0" y1="0" x2="1" y2="0" gradientUnits="userSpaceOnUse" gradientTransform="matrix(305.128,-27.2774,27.2774,305.128,730.448,384.031)"><stop offset="0" style="stop-color:rgb(255,210,6);stop-opacity:1"/><stop offset="0.46" style="stop-color:rgb(255,196,5);stop-opacity:1"/><stop offset="1" style="stop-color:rgb(255,162,3);stop-opacity:1"/></linearGradient>
    </defs>
</svg>
